<svg width="143" height="31" viewBox="0 0 143 31" fill="none" xmlns="http://www.w3.org/2000/svg">
<rect y="23" width="10" height="10" transform="rotate(-45 0 23)" fill="white"/>
<rect x="8.07104" y="15.0711" width="10" height="10" transform="rotate(-45 8.07104 15.0711)" fill="#0089D6"/>
<rect x="16.071" y="23.0711" width="10" height="10" transform="rotate(-45 16.071 23.0711)" fill="#0089D6"/>
<rect x="24.071" y="15.0711" width="10" height="10" transform="rotate(-45 24.071 15.0711)" fill="white"/>
<rect x="32.071" y="7.07108" width="10" height="10" transform="rotate(-45 32.071 7.07108)" fill="white"/>
<path d="M53.181 16.53C53.181 14.49 53.651 12.66 54.591 11.04C55.551 9.41998 56.841 8.15998 58.461 7.25998C60.101 6.33998 61.891 5.87998 63.831 5.87998C66.051 5.87998 68.021 6.42998 69.741 7.52998C71.481 8.60998 72.741 10.15 73.521 12.15H69.411C68.871 11.05 68.121 10.23 67.161 9.68998C66.201 9.14998 65.091 8.87998 63.831 8.87998C62.451 8.87998 61.221 9.18998 60.141 9.80998C59.061 10.43 58.211 11.32 57.591 12.48C56.991 13.64 56.691 14.99 56.691 16.53C56.691 18.07 56.991 19.42 57.591 20.58C58.211 21.74 59.061 22.64 60.141 23.28C61.221 23.9 62.451 24.21 63.831 24.21C65.091 24.21 66.201 23.94 67.161 23.4C68.121 22.86 68.871 22.04 69.411 20.94H73.521C72.741 22.94 71.481 24.48 69.741 25.56C68.021 26.64 66.051 27.18 63.831 27.18C61.871 27.18 60.081 26.73 58.461 25.83C56.841 24.91 55.551 23.64 54.591 22.02C53.651 20.4 53.181 18.57 53.181 16.53ZM79.7742 4.79998V27H77.6742V4.79998H79.7742ZM99.3496 17.97C99.3496 18.69 99.3296 19.24 99.2896 19.62H85.6996C85.7596 20.86 86.0596 21.92 86.5996 22.8C87.1396 23.68 87.8496 24.35 88.7296 24.81C89.6096 25.25 90.5696 25.47 91.6096 25.47C92.9696 25.47 94.1096 25.14 95.0296 24.48C95.9696 23.82 96.5896 22.93 96.8896 21.81H99.1096C98.7096 23.41 97.8496 24.72 96.5296 25.74C95.2296 26.74 93.5896 27.24 91.6096 27.24C90.0696 27.24 88.6896 26.9 87.4696 26.22C86.2496 25.52 85.2896 24.54 84.5896 23.28C83.9096 22 83.5696 20.51 83.5696 18.81C83.5696 17.11 83.9096 15.62 84.5896 14.34C85.2696 13.06 86.2196 12.08 87.4396 11.4C88.6596 10.72 90.0496 10.38 91.6096 10.38C93.1696 10.38 94.5296 10.72 95.6896 11.4C96.8696 12.08 97.7696 13 98.3896 14.16C99.0296 15.3 99.3496 16.57 99.3496 17.97ZM97.2196 17.91C97.2396 16.69 96.9896 15.65 96.4696 14.79C95.9696 13.93 95.2796 13.28 94.3996 12.84C93.5196 12.4 92.5596 12.18 91.5196 12.18C89.9596 12.18 88.6296 12.68 87.5296 13.68C86.4296 14.68 85.8196 16.09 85.6996 17.91H97.2196ZM102.232 18.78C102.232 17.1 102.562 15.63 103.222 14.37C103.902 13.09 104.832 12.11 106.012 11.43C107.212 10.73 108.562 10.38 110.062 10.38C111.622 10.38 112.962 10.74 114.082 11.46C115.222 12.18 116.042 13.1 116.542 14.22V10.62H118.642V27H116.542V23.37C116.022 24.49 115.192 25.42 114.052 26.16C112.932 26.88 111.592 27.24 110.032 27.24C108.552 27.24 107.212 26.89 106.012 26.19C104.832 25.49 103.902 24.5 103.222 23.22C102.562 21.94 102.232 20.46 102.232 18.78ZM116.542 18.81C116.542 17.49 116.272 16.33 115.732 15.33C115.192 14.33 114.452 13.56 113.512 13.02C112.592 12.48 111.572 12.21 110.452 12.21C109.292 12.21 108.252 12.47 107.332 12.99C106.412 13.51 105.682 14.27 105.142 15.27C104.622 16.25 104.362 17.42 104.362 18.78C104.362 20.12 104.622 21.3 105.142 22.32C105.682 23.32 106.412 24.09 107.332 24.63C108.252 25.15 109.292 25.41 110.452 25.41C111.572 25.41 112.592 25.14 113.512 24.6C114.452 24.06 115.192 23.29 115.732 22.29C116.272 21.29 116.542 20.13 116.542 18.81ZM122.476 18.78C122.476 17.1 122.816 15.63 123.496 14.37C124.176 13.09 125.106 12.11 126.286 11.43C127.486 10.73 128.836 10.38 130.336 10.38C131.776 10.38 133.076 10.73 134.236 11.43C135.396 12.13 136.246 13.04 136.786 14.16V4.79998H138.886V27H136.786V23.34C136.286 24.48 135.466 25.42 134.326 26.16C133.186 26.88 131.846 27.24 130.306 27.24C128.806 27.24 127.456 26.89 126.256 26.19C125.076 25.49 124.146 24.5 123.466 23.22C122.806 21.94 122.476 20.46 122.476 18.78ZM136.786 18.81C136.786 17.49 136.516 16.33 135.976 15.33C135.436 14.33 134.696 13.56 133.756 13.02C132.836 12.48 131.816 12.21 130.696 12.21C129.536 12.21 128.496 12.47 127.576 12.99C126.656 13.51 125.926 14.27 125.386 15.27C124.866 16.25 124.606 17.42 124.606 18.78C124.606 20.12 124.866 21.3 125.386 22.32C125.926 23.32 126.656 24.09 127.576 24.63C128.496 25.15 129.536 25.41 130.696 25.41C131.816 25.41 132.836 25.14 133.756 24.6C134.696 24.06 135.436 23.29 135.976 22.29C136.516 21.29 136.786 20.13 136.786 18.81Z" fill="white"/>
</svg>
